<svg width="368" height="336" viewBox="0 0 368 336" fill="none" xmlns="http://www.w3.org/2000/svg">
<circle cx="184.431" cy="185.528" r="150.017" fill="#F1F3FF"/>
<circle cx="43.8168" cy="84.2346" r="9.40277" fill="#F1F3FF"/>
<ellipse cx="236.574" cy="17.9877" rx="17.5233" ry="17.5233" fill="#F1F3FF"/>
<ellipse cx="57.9205" cy="305.2" rx="16.6686" ry="16.6686" fill="#F1F3FF"/>
<ellipse cx="345.132" cy="265.879" rx="16.6686" ry="16.6686" fill="#F1F3FF"/>
<circle cx="312.651" cy="284.685" r="8.12057" fill="#F1F3FF"/>
<path d="M193 42.8085C192.505 42.7031 192.505 41.9958 193 41.8904L200.493 40.2971C200.674 40.2587 200.815 40.1179 200.854 39.9375L202.468 32.4974C202.575 32.0043 203.278 32.0043 203.385 32.4974L204.998 39.9375C205.037 40.1179 205.179 40.2587 205.359 40.2971L212.852 41.8904C213.348 41.9958 213.348 42.7031 212.852 42.8085L205.359 44.4019C205.179 44.4403 205.037 44.581 204.998 44.7615L203.385 52.2016C203.278 52.6947 202.575 52.6947 202.468 52.2016L200.854 44.7615C200.815 44.581 200.674 44.4403 200.493 44.4019L193 42.8085Z" fill="#465AD5"/>
<path d="M21.7828 195.89C21.9741 194.986 23.2641 194.986 23.4554 195.89L26.3128 209.389C26.3824 209.718 26.6385 209.976 26.9671 210.047L40.3272 212.958C41.2243 213.153 41.2243 214.433 40.3272 214.628L26.9671 217.539C26.6385 217.61 26.3824 217.868 26.3128 218.197L23.4554 231.696C23.2641 232.6 21.9741 232.6 21.7828 231.696L18.9254 218.197C18.8558 217.868 18.5997 217.61 18.2711 217.539L4.91103 214.628C4.0139 214.433 4.0139 213.153 4.91103 212.958L18.2711 210.047C18.5997 209.976 18.8558 209.718 18.9254 209.389L21.7828 195.89Z" fill="#465AD5"/>
<path d="M318.502 88.1854C318.693 87.2817 319.983 87.2817 320.174 88.1854L321.841 96.0607C321.911 96.3897 322.167 96.6473 322.495 96.7189L330.312 98.4217C331.209 98.6171 331.209 99.8967 330.312 100.092L322.495 101.795C322.167 101.866 321.911 102.124 321.841 102.453L320.174 110.328C319.983 111.232 318.693 111.232 318.502 110.328L316.835 102.453C316.765 102.124 316.509 101.866 316.18 101.795L308.364 100.092C307.467 99.8967 307.467 98.6171 308.364 98.4217L316.18 96.7189C316.509 96.6473 316.765 96.3897 316.835 96.0607L318.502 88.1854Z" fill="#465AD5"/>
<path d="M352.962 214.446L355.58 226.813L367.77 229.469L355.58 232.124L352.962 244.491L350.344 232.124L338.154 229.469L350.344 226.813L352.962 214.446Z" fill="white"/>
<path d="M269.484 117.572L67.3242 194.931L110.491 315.03L136.563 326.57L169.045 333.408L201.955 332.126L221.188 328.707L238.284 323.578L266.492 309.046L290.426 290.241L292.274 287.852C302.705 274.368 311.954 260.01 319.917 244.936L269.484 117.572Z" fill="#F1F3FF"/>
<path d="M82.7108 160.739L61.3408 148.772L246.832 78.6782L237.002 103.04L244.267 125.692L90.8313 184.246L82.7108 160.739Z" fill="#DDE2FF"/>
<path d="M109.639 314.602V314.602C128.343 324.166 148.593 330.342 169.451 332.845L169.972 332.908L184.843 332.908C195.982 332.908 207.09 331.722 217.978 329.371L221.665 328.575C233.307 326.062 244.547 321.957 255.069 316.377V316.377C263.278 312.024 270.997 306.801 278.09 300.798L280.393 298.85C286.549 293.641 292.262 287.928 297.471 281.772V281.772C304.765 273.152 311.03 263.712 316.139 253.642L320.774 244.509" stroke="#C4CBF5" stroke-width="3.41919"/>
<path d="M65.6846 193.148L110.492 315.429" stroke="#C4CBF5" stroke-width="3.41919"/>
<path d="M271.266 117.499L320.422 245.939" stroke="#C4CBF5" stroke-width="3.41919"/>
<path d="M57.9913 149.126L249.46 77.1792" stroke="#C4CBF5" stroke-width="3.41919"/>
<path d="M64.6941 195.351L268.57 116.726L238.515 102.768C237.652 102.367 237.282 101.339 237.692 100.481L248.159 78.5792" stroke="#C4CBF5" stroke-width="3.41919"/>
<path d="M59.7102 148.535L81.2616 160.09C82.0808 160.529 82.399 161.543 81.9779 162.371L65.6855 194.43" stroke="#C4CBF5" stroke-width="3.41919"/>
<path d="M58.8467 146.989L72.7333 181.701" stroke="#C4CBF5" stroke-width="3.41919"/>
<path d="M82.2842 162.021L90.8322 185.955" stroke="#C4CBF5" stroke-width="3.41919"/>
<path d="M237.857 102.185L246.405 126.974" stroke="#C4CBF5" stroke-width="3.41919"/>
<path d="M248.31 78.9795L260.579 112.797" stroke="#C4CBF5" stroke-width="3.41919"/>
<circle cx="145.966" cy="183.818" r="8.97538" fill="#DDE2FF"/>
<circle cx="133.144" cy="137.659" r="6.41098" fill="#F1F3FF"/>
<circle cx="202.384" cy="162.448" r="8.97538" fill="#DDE2FF"/>
<circle cx="172.465" cy="123.128" r="6.41098" fill="#F1F3FF"/>
</svg>
