<svg width="22" height="20" viewBox="0 0 22 20" fill="none" xmlns="http://www.w3.org/2000/svg">
<path d="M18.6 3.42092L18.5992 3.42014C18.1238 2.95413 17.5633 2.58379 16.9481 2.32927L16.9468 2.32873C16.3086 2.06358 15.6239 1.92787 14.9328 1.92946L14.9305 1.92946C13.9579 1.92946 13.0109 2.19568 12.1888 2.69721L12.1887 2.69723C11.992 2.81722 11.8059 2.94856 11.6299 3.09126L11 3.60221L10.3701 3.09126C10.1941 2.94856 10.008 2.81722 9.81127 2.69723L9.81124 2.69721C8.98912 2.19568 8.04209 1.92946 7.06953 1.92946C6.36741 1.92946 5.69167 2.0635 5.05314 2.32874L5.05206 2.32919C4.43442 2.5849 3.87878 2.952 3.4005 3.42044L3.39914 3.42177L3.39914 3.42177C2.9256 3.8838 2.54732 4.43425 2.28574 5.04194L18.6 3.42092ZM18.6 3.42092C19.0734 3.88393 19.452 4.43477 19.7146 5.04263C19.9866 5.67495 20.1246 6.34322 20.1227 7.03209V7.03493C20.1227 7.67848 19.9913 8.3708 19.7128 9.09881L19.712 9.10108M18.6 3.42092L19.712 9.10108M6.29708 14.4072L6.29719 14.4073C7.35005 15.3796 8.40169 16.205 9.20311 16.795C9.60306 17.0894 9.93872 17.3238 10.1785 17.487C10.2983 17.5686 10.3939 17.6322 10.4613 17.6765C10.5211 17.7158 10.5538 17.7367 10.5615 17.7416C10.563 17.7425 10.5635 17.7429 10.5632 17.7426L10.5711 17.7475L10.5789 17.7525L10.9988 18.0219L11.4187 17.7525L11.4189 17.7524C11.4905 17.7065 13.5859 16.3579 15.7006 14.4072H6.29708ZM6.29708 14.4072C5.0259 13.2336 4.02555 12.097 3.31128 11.0323L6.29708 14.4072ZM19.712 9.10108C19.4815 9.70825 19.138 10.3581 18.6864 11.0323M19.712 9.10108L18.6864 11.0323M18.6864 11.0323C17.9722 12.097 16.9719 13.2335 15.7009 14.4069L18.6864 11.0323ZM1.875 7.03493C1.875 6.3439 2.01354 5.6745 2.28571 5.04201L2.28462 9.09832C2.00633 8.37049 1.875 7.67833 1.875 7.03493ZM3.31095 11.0318C2.86075 10.3597 2.51864 9.70914 2.28481 9.09882L3.31095 11.0318Z" fill="white" stroke="#2B2B2B" stroke-width="2"/>
</svg>
