<svg width="41" height="40" viewBox="0 0 41 40" fill="none" xmlns="http://www.w3.org/2000/svg">
<rect x="0.5" width="40" height="40" rx="20" fill="#465AD5"/>
<path d="M32.5618 18.7301L26.214 18.7301C26.214 17.7489 26.0869 14.8051 24.9443 14.8051C23.6747 14.8051 23.6747 17.7489 23.6747 18.7301L17.1682 18.7301C17.1682 18.0759 17.3269 14.8051 16.0573 14.8051C14.7877 14.8051 14.7877 18.0759 14.7877 18.7301L14.7877 18.7301L8.43987 18.7301C8.43987 14.6416 8.12248 7.93645 14.7877 7.93645C19.2312 7.93645 20.1834 11.2073 20.5008 11.2073C20.8182 11.2073 21.7704 7.93645 26.5314 7.93645C32.8792 8.09999 32.5618 14.3145 32.5618 18.7301Z" fill="white"/>
<path d="M8.44011 21.2697H14.788C14.788 22.2509 14.915 25.1946 16.0576 25.1946C17.3272 25.1946 17.3272 22.2509 17.3272 21.2697H23.8338C23.8338 21.9238 23.6751 25.1946 24.9447 25.1946C26.2142 25.1946 26.2142 21.9239 26.2142 21.2697V21.2697H32.5621C32.5621 25.3582 32.8795 32.0633 26.2142 32.0633C21.7707 32.0633 20.8185 28.7925 20.5011 28.7925C20.1838 28.7925 19.2316 32.0633 14.4706 32.0633C8.12277 31.8998 8.44016 25.6852 8.44011 21.2697Z" fill="white"/>
</svg>
