<svg width="24" height="24" viewBox="0 0 24 24" fill="none" xmlns="http://www.w3.org/2000/svg">
<g clip-path="url(#clip0_127_10358)">
<path d="M21.5361 17.8942H19.6531C19.5245 17.8942 19.404 17.9504 19.3236 18.0495C19.1361 18.2772 18.9352 18.4968 18.7236 18.7058C17.8581 19.5721 16.833 20.2625 15.7049 20.7388C14.5361 21.2325 13.2799 21.4857 12.0111 21.4834C10.7281 21.4834 9.48521 21.2317 8.31735 20.7388C7.18921 20.2625 6.16407 19.5721 5.2986 18.7058C4.43159 17.8424 3.74025 16.819 3.26289 15.6924C2.76735 14.5245 2.51824 13.2843 2.51824 12.0013C2.51824 10.7183 2.77003 9.47808 3.26289 8.31023C3.73967 7.18255 4.42539 6.16737 5.2986 5.29683C6.17182 4.4263 7.18699 3.74058 8.31735 3.2638C9.48521 2.77094 10.7281 2.51915 12.0111 2.51915C13.2941 2.51915 14.537 2.76826 15.7049 3.2638C16.8352 3.74058 17.8504 4.4263 18.7236 5.29683C18.9352 5.50844 19.1334 5.72808 19.3236 5.95308C19.404 6.05219 19.5272 6.10844 19.6531 6.10844H21.5361C21.7049 6.10844 21.8093 5.92094 21.7156 5.77898C19.6611 2.58612 16.0665 0.472725 11.9816 0.483439C5.56378 0.49951 0.418244 5.70933 0.482529 12.1192C0.546815 18.4272 5.68432 23.5192 12.0111 23.5192C16.0852 23.5192 19.6638 21.4084 21.7156 18.2236C21.8066 18.0817 21.7049 17.8942 21.5361 17.8942ZM23.9174 11.8325L20.1165 8.83255C19.9745 8.72005 19.7682 8.82183 19.7682 9.0013V11.037H11.3575C11.2397 11.037 11.1432 11.1334 11.1432 11.2513V12.7513C11.1432 12.8692 11.2397 12.9656 11.3575 12.9656H19.7682V15.0013C19.7682 15.1808 19.9772 15.2825 20.1165 15.17L23.9174 12.17C23.943 12.15 23.9637 12.1244 23.9779 12.0952C23.9922 12.0659 23.9996 12.0338 23.9996 12.0013C23.9996 11.9688 23.9922 11.9367 23.9779 11.9074C23.9637 11.8782 23.943 11.8526 23.9174 11.8325Z" fill="#2B2B2B"/>
</g>
<defs>
<clipPath id="clip0_127_10358">
<rect width="24" height="24" fill="white"/>
</clipPath>
</defs>
</svg>
