<svg width="310" height="303" viewBox="0 0 310 303" fill="none" xmlns="http://www.w3.org/2000/svg">
<circle cx="168.893" cy="167.219" r="125.044" fill="#F1F3FF"/>
<circle cx="28.8867" cy="131.95" r="28.5" fill="#F1F3FF"/>
<circle cx="83.75" cy="17.95" r="17.8125" fill="#F1F3FF"/>
<circle cx="280.042" cy="41.1062" r="13.8938" fill="#F1F3FF"/>
<circle cx="275.769" cy="249.869" r="6.76875" fill="#F1F3FF"/>
<path d="M201.487 49.0795C200.956 48.9666 200.956 48.2086 201.487 48.0957L209.517 46.3881C209.711 46.3469 209.862 46.1961 209.904 46.0027L211.633 38.0293C211.748 37.5008 212.501 37.5008 212.616 38.0293L214.345 46.0027C214.387 46.1961 214.538 46.3469 214.732 46.3881L222.762 48.0957C223.293 48.2086 223.293 48.9666 222.762 49.0795L214.732 50.7871C214.538 50.8283 214.387 50.9791 214.345 51.1725L212.616 59.1459C212.501 59.6744 211.748 59.6744 211.633 59.1459L209.904 51.1725C209.862 50.9791 209.711 50.8283 209.517 50.7871L201.487 49.0795Z" fill="#C4CBF5"/>
<path d="M21.5557 183.323C21.7151 182.57 22.7904 182.57 22.9498 183.323L25.3316 194.575C25.3896 194.85 25.6031 195.064 25.8769 195.124L37.013 197.55C37.7608 197.713 37.7608 198.779 37.013 198.942L25.8769 201.368C25.6031 201.428 25.3896 201.643 25.3316 201.917L22.9498 213.169C22.7904 213.922 21.7151 213.922 21.5557 213.169L19.1739 201.917C19.1159 201.643 18.9024 201.428 18.6286 201.368L7.49253 198.942C6.74475 198.779 6.74475 197.713 7.49253 197.55L18.6286 195.124C18.9024 195.064 19.1159 194.85 19.1739 194.575L21.5557 183.323Z" fill="#C4CBF5"/>
<path d="M201.796 281.541C201.955 280.788 203.031 280.788 203.19 281.541L204.58 288.105C204.638 288.38 204.851 288.594 205.125 288.654L211.64 290.073C212.388 290.236 212.388 291.303 211.64 291.466L205.125 292.885C204.851 292.945 204.638 293.159 204.58 293.434L203.19 299.998C203.031 300.751 201.955 300.751 201.796 299.998L200.407 293.434C200.348 293.159 200.135 292.945 199.861 292.885L193.346 291.466C192.598 291.303 192.598 290.236 193.346 290.073L199.861 288.654C200.135 288.594 200.348 288.38 200.407 288.105L201.796 281.541Z" fill="#C4CBF5"/>
<path d="M302.843 90.8631L215.642 74.1534C211.778 73.4128 208.044 75.9455 207.304 79.8102L184.962 196.404C184.54 198.603 185.177 200.872 186.681 202.531L227.203 247.228C229.556 249.824 233.447 250.324 236.379 248.407L283.609 217.543C285.227 216.486 286.346 214.817 286.709 212.919L308.5 99.2017C309.241 95.337 306.708 91.6037 302.843 90.8631Z" fill="#465AD5"/>
<path d="M241.136 115.208C234.685 113.83 228.347 117.89 226.982 124.279C225.88 129.436 225.31 142.112 242.793 158.784C243.106 159.081 243.495 159.285 243.917 159.375C244.339 159.465 244.778 159.438 245.185 159.296C267.954 151.222 272.614 139.42 273.715 134.263C275.08 127.874 270.955 121.579 264.503 120.2C258.052 118.822 251.322 124.714 251.322 124.714C251.322 124.714 247.588 116.587 241.136 115.208Z" fill="white"/>
<circle cx="234.087" cy="218.162" r="9.2625" fill="#F1F3FF"/>
<path d="M139.185 36.6177L22.956 78.7164C18.5162 80.3245 16.2207 85.2273 17.8288 89.6671L73.154 242.413C74.0689 244.939 76.1179 246.888 78.6865 247.676L158.982 272.296C163.001 273.528 167.32 271.656 169.168 267.88L203.706 197.307C204.725 195.224 204.855 192.817 204.065 190.637L150.136 41.7449C148.528 37.3051 143.625 35.0096 139.185 36.6177Z" fill="#F1F3FF" stroke="#C4CBF5" stroke-width="2.85"/>
<path d="M100.786 111.161C101.209 110.995 101.53 110.638 101.65 110.2L101.65 110.199L101.651 110.196L101.657 110.174C101.663 110.154 101.672 110.121 101.685 110.078C101.711 109.99 101.751 109.857 101.806 109.684C101.916 109.338 102.086 108.833 102.318 108.213C102.784 106.971 103.498 105.28 104.491 103.484C106.502 99.8435 109.531 95.995 113.743 94.3423C122.373 90.956 132.064 95.1417 135.405 103.654C136.796 107.2 138.479 113.543 137.121 122.593C135.762 131.651 131.342 143.511 120.383 158.057C120.146 158.369 119.827 158.61 119.462 158.753C119.096 158.896 118.699 158.937 118.313 158.87C100.386 155.658 89.0799 149.97 81.9227 144.253C74.7724 138.542 71.6924 132.747 70.301 129.201C66.9606 120.689 71.2192 111.029 79.8489 107.643C84.0606 105.99 88.8989 106.751 92.849 108.052C94.7987 108.694 96.4725 109.448 97.6583 110.042C98.2501 110.338 98.7174 110.593 99.0335 110.772C99.1915 110.861 99.3115 110.931 99.3902 110.978C99.4072 110.988 99.4223 110.997 99.4354 111.005C99.4526 111.015 99.4664 111.024 99.4767 111.03L99.4959 111.042L99.4986 111.043C99.4987 111.043 99.4988 111.044 99.499 111.044C99.8855 111.284 100.363 111.327 100.786 111.161Z" fill="#C4CBF5" stroke="#C4CBF5" stroke-width="2.88399" stroke-linecap="round" stroke-linejoin="round"/>
<circle cx="147.518" cy="232.056" r="11.7563" fill="#C4CBF5"/>
</svg>
