<svg width="16" height="13" viewBox="0 0 16 13" fill="none" xmlns="http://www.w3.org/2000/svg">
<path d="M15.0003 0.21106H1.00028C0.921708 0.21106 0.857422 0.275345 0.857422 0.353917V1.49677C0.857422 1.57535 0.921708 1.63963 1.00028 1.63963H15.0003C15.0789 1.63963 15.1431 1.57535 15.1431 1.49677V0.353917C15.1431 0.275345 15.0789 0.21106 15.0003 0.21106ZM15.0003 11.3539H1.00028C0.921708 11.3539 0.857422 11.4182 0.857422 11.4968V12.6396C0.857422 12.7182 0.921708 12.7825 1.00028 12.7825H15.0003C15.0789 12.7825 15.1431 12.7182 15.1431 12.6396V11.4968C15.1431 11.4182 15.0789 11.3539 15.0003 11.3539ZM15.0003 5.78249H1.00028C0.921708 5.78249 0.857422 5.84677 0.857422 5.92535V7.0682C0.857422 7.14677 0.921708 7.21106 1.00028 7.21106H15.0003C15.0789 7.21106 15.1431 7.14677 15.1431 7.0682V5.92535C15.1431 5.84677 15.0789 5.78249 15.0003 5.78249Z" fill="white"/>
</svg>
